<svg width="121" height="31" viewBox="0 0 121 31" fill="none" xmlns="http://www.w3.org/2000/svg">
<path d="M105 19.5485C105.795 19.5485 106.167 19.5612 106.167 18.7145C106.167 16.9222 109.205 14.6757 110.38 13.5563C112.938 11.1184 115.77 8.98411 118.06 6.29777C118.52 5.75863 119 4.97737 119 5.0005C119 13.0003 119 21.0002 119 29" stroke="black" stroke-width="3" stroke-linecap="round"/>
<path d="M2 29C2 23.7026 3.08265 18.2869 3.36752 12.9615C3.44214 11.5667 2.67399 2.42445 5.96581 2.00663C7.43292 1.82041 9.02453 5.61658 9.38462 6.23105C11.2772 9.4607 14.6097 12.5947 15.6752 16.0164C15.9548 16.9143 15.9539 18.2707 17.0769 18.8805C17.8284 19.2885 18 19.2605 18 19.9783" stroke="black" stroke-width="3" stroke-linecap="round"/>
</svg>
